<?xml version="1.0" encoding="utf-8"?>
<!-- Generator: Adobe Illustrator 24.1.2, SVG Export Plug-In . SVG Version: 6.00 Build 0)  -->
<svg version="1.1" id="Layer_1" xmlns="http://www.w3.org/2000/svg" xmlns:xlink="http://www.w3.org/1999/xlink" x="0px" y="0px"
	 viewBox="0 0 90 28" style="enable-background:new 0 0 90 28;" xml:space="preserve">
<style type="text/css">
	.st0{fill:#FFFFFF;}
	.st1{fill:#D94C30;}
</style>
<g>
	<path class="st0" d="M10,19.4v-0.6c0.4-0.1,0.7-0.2,0.9-0.3c0.2-0.1,0.4-0.2,0.5-0.4c0.1-0.2,0.2-0.4,0.2-0.7c0-0.3,0-0.6-0.1-0.9
		c-0.1-0.3-0.2-0.7-0.3-1.1l-0.5-1.6H4.8l-0.4,1.2C4.2,15.6,4,16,3.9,16.4c-0.1,0.3-0.1,0.6-0.1,0.9c0,0.5,0.1,0.9,0.4,1.1
		c0.3,0.2,0.7,0.4,1.2,0.5v0.6H0v-0.6c0.5-0.1,0.9-0.4,1.2-0.8c0.4-0.5,0.7-1.2,1-2L7.6,1.9h2l4.3,14.2c0.2,0.7,0.4,1.2,0.5,1.5
		c0.2,0.3,0.3,0.6,0.6,0.8c0.2,0.2,0.5,0.3,0.9,0.4v0.6H10z M5.2,12.6h5.3L8,4.4L5.2,12.6z"/>
	<path class="st0" d="M17.4,18.8c0.3-0.1,0.6-0.2,0.7-0.3s0.3-0.2,0.4-0.3c0.1-0.1,0.2-0.3,0.2-0.6c0.1-0.3,0.1-0.7,0.1-1.3v-5.5
		c0-0.5,0-1,0-1.3s-0.1-0.6-0.2-0.8c-0.1-0.2-0.3-0.3-0.5-0.4C17.9,8.1,17.6,8,17.2,8V7.3l3-0.1h0.8v9.1c0,0.7,0,1.2,0.1,1.5
		s0.2,0.5,0.4,0.6s0.5,0.3,0.9,0.4v0.6h-5V18.8z M21,2.3v2.5h-2.3V2.3H21z"/>
	<path class="st0" d="M41.7,8.6l-2.3-0.1l-0.1,0.1c0.3,0.3,0.5,0.6,0.6,1.1c0.2,0.5,0.2,0.9,0.2,1.5c0,1.4-0.4,2.4-1.3,3.2
		c-0.9,0.7-2.1,1.1-3.6,1.1c-0.7,0-1.3-0.1-1.8-0.3c-0.6,0.5-1,1-1,1.4c0,0.3,0.1,0.6,0.2,0.7c0.1,0.2,0.3,0.3,0.6,0.3
		c0.3,0.1,0.7,0.1,1.3,0.1h3c0.9,0,1.6,0.1,2.2,0.4s1,0.7,1.2,1.1c0.2,0.5,0.4,1,0.4,1.6c0,0.8-0.2,1.5-0.7,2.1
		c-0.5,0.6-1.1,1.1-2,1.5s-1.9,0.5-3,0.5c-0.9,0-1.6-0.1-2.3-0.2c-0.7-0.1-1.3-0.3-1.8-0.5c-0.5-0.2-0.9-0.6-1.2-1
		c-0.3-0.4-0.4-0.9-0.4-1.5c0-0.5,0.2-1,0.5-1.5c0.4-0.4,0.9-0.8,1.5-1.1c-0.4-0.2-0.7-0.4-0.9-0.7s-0.3-0.7-0.3-1.1
		c0-0.5,0.1-0.9,0.4-1.3c0.3-0.4,0.7-0.9,1.4-1.4c-0.6-0.4-1.1-0.8-1.4-1.4c-0.3-0.6-0.5-1.3-0.5-2.1c0-0.7,0.1-1.4,0.4-1.9
		c0.2-0.5,0.6-1,1-1.3c0.4-0.4,0.9-0.6,1.5-0.8c0.6-0.2,1.2-0.3,1.9-0.3c0.6,0,1.2,0.1,1.8,0.2h4.5V8.6z M33.2,19.6
		c-0.4,0.3-0.8,0.7-1,1s-0.3,0.8-0.3,1.2c0,0.8,0.3,1.3,0.9,1.7c0.6,0.4,1.5,0.5,2.8,0.5c0.8,0,1.4-0.1,2-0.3s1-0.5,1.3-0.9
		s0.4-0.8,0.4-1.3c0-0.2,0-0.5-0.1-0.7c-0.1-0.2-0.2-0.4-0.3-0.6c-0.2-0.2-0.4-0.3-0.7-0.4c-0.3-0.1-0.7-0.2-1.2-0.2H35
		C34.3,19.7,33.7,19.7,33.2,19.6z M32.9,11.2c0,1.1,0.2,1.9,0.6,2.5s1.1,0.9,1.9,0.9c0.4,0,0.8-0.1,1.1-0.2c0.3-0.2,0.6-0.4,0.7-0.7
		s0.3-0.6,0.4-1c0.1-0.4,0.1-0.8,0.1-1.2c0-0.7-0.1-1.4-0.3-1.9C37.3,9,37,8.6,36.6,8.4c-0.4-0.2-0.8-0.3-1.3-0.3
		c-0.8,0-1.4,0.3-1.8,0.8S32.9,10.2,32.9,11.2z"/>
	<path class="st0" d="M53.3,17.3c-0.5,0.6-1,1-1.5,1.3c-0.5,0.3-1,0.6-1.5,0.8c-0.5,0.2-1.1,0.3-1.8,0.3c-1.7,0-3.1-0.5-3.9-1.6
		c-0.9-1-1.3-2.6-1.3-4.6c0-1.3,0.2-2.4,0.7-3.3c0.5-1,1.1-1.7,1.9-2.2s1.8-0.8,2.9-0.8c0.9,0,1.6,0.1,2.2,0.4s1.1,0.6,1.4,1.1
		s0.6,1.1,0.8,1.8c0.2,0.7,0.3,1.6,0.3,2.8h-8v0.2c0,1,0.1,1.8,0.3,2.5c0.2,0.7,0.6,1.2,1.1,1.6c0.5,0.4,1.2,0.6,2,0.6
		c0.7,0,1.3-0.1,1.9-0.4c0.6-0.3,1.1-0.7,1.7-1.3L53.3,17.3z M51.2,12.1c-0.1-0.9-0.2-1.7-0.3-2.2s-0.4-1-0.8-1.3
		c-0.4-0.3-0.8-0.5-1.4-0.5c-0.9,0-1.6,0.3-2.1,1c-0.5,0.7-0.8,1.7-0.9,3H51.2z"/>
	<path class="st0" d="M68.2,19.4h-5v-0.6c0.3-0.1,0.6-0.2,0.7-0.3c0.1-0.1,0.3-0.2,0.4-0.3c0.1-0.1,0.2-0.3,0.2-0.6
		c0.1-0.3,0.1-0.7,0.1-1.3V13c0-0.6,0-1.1-0.1-1.6c0-0.5-0.1-0.9-0.2-1.2c-0.1-0.3-0.2-0.6-0.3-0.7C64,9.3,63.8,9.1,63.7,9
		c-0.2-0.1-0.3-0.2-0.5-0.3c-0.2-0.1-0.5-0.1-0.8-0.1c-0.3,0-0.6,0.1-0.9,0.2c-0.3,0.1-0.6,0.4-1,0.7c-0.4,0.3-0.6,0.6-0.8,1
		c-0.2,0.3-0.2,0.7-0.2,1.1v4.7c0,0.7,0,1.2,0.1,1.5s0.2,0.5,0.4,0.6c0.2,0.1,0.5,0.3,0.9,0.4v0.6h-5v-0.6c0.3-0.1,0.6-0.2,0.7-0.3
		c0.1-0.1,0.3-0.2,0.4-0.3c0.1-0.1,0.2-0.3,0.2-0.6s0.1-0.7,0.1-1.3v-5.5c0-0.5,0-1,0-1.3S57.1,8.9,57,8.7c-0.1-0.2-0.3-0.3-0.5-0.4
		C56.3,8.1,56,8,55.7,8V7.3l3-0.1h0.8l-0.1,2.1l0.2,0.1C60.1,8.7,60.6,8.2,61,8c0.4-0.3,0.8-0.5,1.2-0.6c0.4-0.1,0.8-0.2,1.3-0.2
		c0.5,0,0.9,0.1,1.2,0.2c0.4,0.1,0.7,0.3,1,0.5s0.5,0.5,0.7,0.8s0.3,0.7,0.4,1.2c0.1,0.5,0.1,1,0.1,1.7v4.8c0,0.6,0,1,0.1,1.3
		c0,0.3,0.1,0.5,0.2,0.6c0.1,0.1,0.2,0.3,0.4,0.4c0.2,0.1,0.4,0.2,0.8,0.3V19.4z"/>
	<path class="st0" d="M78.9,10.1h-1.2c-0.2-0.5-0.4-0.9-0.7-1.2s-0.5-0.5-0.9-0.6s-0.7-0.2-1.2-0.2c-0.7,0-1.2,0.2-1.6,0.5
		s-0.6,0.8-0.6,1.3c0,0.4,0.1,0.7,0.2,1c0.2,0.3,0.4,0.5,0.7,0.7s0.9,0.5,1.8,0.9c0.9,0.4,1.5,0.7,2,1c0.5,0.3,0.8,0.7,1.1,1.1
		C78.9,15,79,15.5,79,16c0,0.7-0.1,1.2-0.3,1.7c-0.2,0.5-0.6,0.8-1,1.1s-0.9,0.5-1.5,0.6c-0.6,0.1-1.2,0.2-1.9,0.2
		c-0.7,0-1.4-0.1-2.1-0.2c-0.7-0.1-1.3-0.2-2-0.4v-2.7h1.2c0.2,0.8,0.6,1.3,1,1.7s1.1,0.5,1.9,0.5c0.3,0,0.6,0,0.9-0.1
		c0.3-0.1,0.6-0.2,0.8-0.3s0.4-0.3,0.5-0.6c0.1-0.3,0.2-0.6,0.2-1c0-0.4-0.1-0.8-0.3-1.1c-0.2-0.3-0.4-0.5-0.8-0.7
		c-0.4-0.2-1-0.5-1.9-0.9c-0.8-0.3-1.4-0.6-1.9-0.9c-0.5-0.3-0.8-0.7-1.1-1.1c-0.3-0.4-0.4-0.9-0.4-1.5c0-0.7,0.2-1.3,0.6-1.8
		c0.4-0.5,0.9-0.9,1.6-1.2c0.7-0.3,1.5-0.4,2.5-0.4c0.6,0,1.1,0,1.6,0.1s1.2,0.2,2,0.3V10.1z"/>
</g>
<circle class="st1" cx="83" cy="18" r="2"/>
</svg>
